Coordinates
version=1
nRows=16
nColumns=36
inDegrees=yes

Units are S.I. units (second, meters, Newtons, ...)
If the header above contains a line with 'inDegrees', this indicates whether rotational values are in degrees (yes) or radians (no).

endheader
time	pelvis_tilt	pelvis_list	pelvis_rotation	pelvis_tx	pelvis_ty	pelvis_tz	hip_flexion_r	hip_adduction_r	hip_rotation_r	knee_angle_r	knee_angle_r_beta	ankle_angle_r	subtalar_angle_r	mtp_angle_r	hip_flexion_l	hip_adduction_l	hip_rotation_l	knee_angle_l	knee_angle_l_beta	ankle_angle_l	subtalar_angle_l	mtp_angle_l	lumbar_extension	lumbar_bending	lumbar_rotation	arm_flex_r	arm_add_r	arm_rot_r	elbow_flex_r	pro_sup_r	arm_flex_l	arm_add_l	arm_rot_l	elbow_flex_l	pro_sup_l
      0.00000000	     -1.75801861	     -1.82197875	      3.16267048	     -0.07184104	      1.16010609	      0.06497289	      1.91521923	      2.46816306	     -3.07102458	      5.68404093	      0.09920523	     10.14864067	     -2.75960901	     -7.01898745	      2.98456482	     -3.32987323	     -1.79768555	     10.45839713	      0.18253346	     14.06701246	     -1.79355686	     -7.01898745	      1.07836711	      4.55080815	     -0.84677473	      2.57058323	     -9.96456568	     18.47342629	     28.19109796	     79.82969679	     -8.03572978	     -9.18865301	      8.64426288	     94.94695201	     89.60155964
      0.01666670	     -4.36129132	     -1.98831091	      2.87425139	     -0.07129028	      1.15604955	      0.06531885	      5.00283266	      2.66170286	     -1.98475125	      6.12269041	      0.10686111	     12.08768362	     -2.17277530	     -7.09581469	      6.26335608	     -3.03011775	     -2.08873033	     10.78527357	      0.18823853	     13.66916590	     -2.09562733	     -7.09581469	      4.95129951	      4.64964628	     -0.17995879	      0.56094569	    -10.89381518	     18.42470537	     30.91693690	     78.15055021	     -7.95706353	     -9.06460718	      9.34504698	     95.87958608	     87.97368898
      0.03333330	     -5.38524253	     -1.24408745	      2.40160976	     -0.07019657	      1.15208755	      0.06428166	      5.87972458	      1.86878787	     -1.73466856	      5.65202388	      0.09864643	     12.58622115	     -1.55720692	     -7.13421752	      7.19377076	     -2.19451281	     -2.77384147	     10.31885664	      0.18009802	     13.69497117	     -1.28765063	     -7.13421752	      6.56272904	      3.67246836	      0.81652300	     -0.14584460	    -11.08199086	     18.35683080	     31.80461565	     77.53285618	     -7.38602995	     -9.75771757	      9.79733284	     96.29529484	     87.26263880
      0.05000000	     -5.74550337	     -0.73057292	      2.41879817	     -0.06947966	      1.15197161	      0.06415252	      6.11224739	      1.30906055	     -1.75748684	      5.32627506	      0.09296104	     13.22452335	     -0.62253745	     -7.16084132	      7.02099164	     -1.68085363	     -3.53902804	      9.37618804	      0.16364535	     13.87238686	     -0.08088267	     -7.16084132	      7.35299927	      2.98056678	      0.90528592	     -0.33486411	    -10.25149769	     15.99505168	     31.33036851	     79.49528503	     -7.96341258	     -9.81715030	      9.18221543	     96.58400445	     89.87791377
      0.06666670	     -6.05539653	     -0.48848679	      2.38999323	     -0.06863504	      1.15147714	      0.06315334	      6.29962622	      1.01519000	     -1.39972653	      5.28499128	      0.09224050	     13.17932548	     -0.88682721	     -7.26296661	      6.80397410	     -1.29863665	     -3.50417330	      8.39413629	      0.14650532	     13.64596584	     -0.04894902	     -7.26296661	      7.79230405	      2.72519770	      1.62685823	     -1.83817788	     -9.33388250	      9.97206077	     33.23100790	     87.56447385	     -8.02540162	     -9.95996192	      9.53141749	     96.67794370	     96.57326576
      0.08333330	     -6.22009295	     -0.33504743	      2.46747995	     -0.07124971	      1.15366869	      0.06438700	      6.63494028	      0.88648118	     -1.25325742	      5.54310125	      0.09674537	     13.23030109	     -1.17890808	     -7.26541513	      6.52570560	     -1.08782651	     -3.57644313	      7.41215545	      0.12936652	     13.33240412	      0.22427107	     -7.26541513	      8.09304790	      2.53514609	      1.43648557	     -1.79132486	     -8.90678314	      9.72046307	     33.38330935	     87.57502122	     -8.29594418	    -10.17557241	      9.58912629	     96.67521371	     96.52483300
      0.10000000	     -6.35847911	     -0.25601624	      2.66988993	     -0.06801083	      1.15352174	      0.06193328	      6.89817753	      0.79179368	     -0.87886106	      5.77242136	      0.10074776	     12.84689112	     -2.05860305	     -7.28261079	      6.13494615	     -0.94018747	     -3.81860526	      6.54946124	      0.11430966	     13.06832519	      0.87032073	     -7.28261079	      8.28041425	      2.42523919	      1.15066516	     -2.06213346	     -8.20962893	      7.61251177	     33.65050577	     87.55081773	     -8.42514551	    -10.42034265	      9.97739233	     96.71272037	     96.34196754
      0.11666670	     -6.30863022	     -0.28531524	      2.97123542	     -0.06991811	      1.15333639	      0.06305508	      7.10390720	      0.81457875	     -0.96429729	      6.28916827	      0.10976669	     12.75595427	     -2.40064723	     -7.31093006	      5.60524989	     -0.88740695	     -3.70027116	      5.82309546	      0.10163219	     12.58409890	      0.94201017	     -7.31093006	      8.28930630	      2.45056933	      1.18737331	     -2.51487395	     -8.00066297	      7.10018419	     34.62353554	     85.73356410	     -7.88852472	    -10.76727133	     11.01618469	     96.14169962	     94.39773609
      0.13333330	     -6.35160000	     -0.33515740	      3.30813362	     -0.07120072	      1.15144502	      0.06367964	      7.60796265	      0.90225721	     -0.85683913	      6.95309343	      0.12135437	     12.97430052	     -2.84368590	     -7.32793686	      5.28930010	     -0.90165591	     -3.51801099	      5.10000891	      0.08901195	     12.32062252	      1.27057006	     -7.32793686	      8.38862848	      2.43357876	      1.05599791	     -2.78725576	     -7.80613057	      6.70111354	     35.29298847	     84.61810812	     -7.47763494	    -11.12878738	     11.80124798	     95.71908561	     93.28378619
      0.15000000	     -6.86741834	     -0.47510088	      3.70384440	     -0.07150670	      1.15206097	      0.06325456	      8.60839152	      0.96824127	     -1.06347113	      7.71122035	      0.13458618	     13.01976444	     -3.31807119	     -7.34590611	      5.63049635	     -0.97071565	     -3.25521713	      4.62247766	      0.08067745	     12.17329196	      1.18166770	     -7.34590611	      9.13825560	      2.57301470	      0.81993530	     -3.52505484	     -7.79278383	      6.59358458	     36.91114801	     82.89941767	     -7.27290641	    -11.09528508	     12.04621322	     94.75301298	     91.44252558
      0.16666670	     -6.31365288	     -0.41978308	      3.89851043	     -0.07446872	      1.15043628	      0.06378401	      8.57453099	      1.03003414	     -0.41731801	      8.38667261	      0.14637505	     13.07437907	     -4.36334392	     -7.40078421	      4.72572383	     -0.99791511	     -3.83721111	      3.83274458	      0.06689401	     12.34648161	      2.57119161	     -7.40078421	      8.48425816	      2.48526688	      2.01423109	     -3.65270422	     -7.31769025	      5.10992700	     36.04196237	     78.50753453	     -4.89578210	    -12.20897743	     15.92548857	     93.19926624	     86.93412942
      0.18333330	     -6.24870390	     -0.50198139	      4.29814805	     -0.07284353	      1.15185334	      0.06218489	      9.02890795	      1.09410109	     -0.44998017	      9.28434460	      0.16204238	     12.99587634	     -5.06205667	     -7.43090507	      4.39239829	     -1.04380171	     -3.63549048	      3.21136693	      0.05604893	     12.17408807	      3.09783759	     -7.43090507	      8.30025182	      2.49514531	      0.83018552	     -3.33548469	     -7.11625543	      4.52202898	     36.60134155	     86.03232155	     -5.38289580	    -12.17854439	     14.61279305	     93.25695444	     96.69264812
      0.20000000	     -6.35297863	     -0.57558082	      4.53918715	     -0.07311176	      1.15195697	      0.06136334	      9.64217359	      1.11181535	     -0.55410554	     10.10953740	      0.17644471	     13.24250381	     -5.41088047	     -7.43560862	      4.30470893	     -1.05377713	     -3.35736399	      2.67331755	      0.04665819	     11.97466201	      3.33266277	     -7.43560862	      8.40343312	      2.52205491	      0.45565935	     -3.59509865	     -7.07298105	      4.45936600	     37.44791219	     85.09783716	     -5.28599972	    -12.22275997	     14.97533040	     92.75501989	     95.61350631
      0.21666670	     -6.02963375	     -0.61138757	      4.78313003	     -0.07503412	      1.15045463	      0.06169603	      9.80142251	      1.14662210	     -0.56885070	     10.90420196	      0.19031423	     13.28035707	     -6.19187246	     -7.44222682	      3.76068211	     -1.07916731	     -3.42134135	      2.23041560	      0.03892810	     12.00530090	      3.98017732	     -7.44222682	      7.93788389	      2.52440738	      0.20443669	     -3.56478706	     -7.00214597	      4.39526634	     37.94136457	     83.88808497	     -4.74306280	    -12.59543793	     15.93255490	     92.35573852	     94.38240085
      0.23333330	     -6.03243835	     -0.67448180	      5.02492929	     -0.07333991	      1.15111523	      0.06073739	     10.18920858	      1.14157092	     -0.65758883	     11.71279847	      0.20442690	     13.17863026	     -6.94400977	     -7.45414511	      3.58932894	     -1.11623824	     -3.76845295	      1.97995669	      0.03455676	     12.21068969	      5.05310381	     -7.45414511	      8.12403107	      2.55355393	      0.09790262	     -3.51535197	     -6.93837558	      4.67391905	     37.39143145	     83.64503971	     -4.42860080	    -12.69658527	     16.57945037	     91.54350219	     93.85919209
      0.25000000	     -5.91094427	     -0.73850054	      5.25086456	     -0.07310069	      1.15124797	      0.06024910	     10.34443786	      1.17765260	     -0.70289750	     12.35480242	      0.21563198	     13.13180104	     -7.53893350	     -7.46884467	      3.31136949	     -1.17498888	     -3.76124359	      1.71388343	      0.02991291	     12.26104535	      5.54223580	     -7.46884467	      7.99666217	      2.56447669	     -0.63543578	     -3.41215155	     -6.94181085	      4.93578627	     37.77129579	     85.60158757	     -4.80092713	    -12.62041434	     15.89945728	     91.74914496	     96.65362785
